<?xml version="1.0" standalone="no"?><!DOCTYPE svg PUBLIC "-//W3C//DTD SVG 1.1//EN" "http://www.w3.org/Graphics/SVG/1.1/DTD/svg11.dtd"><svg t="1718284961476" class="icon" viewBox="0 0 1024 1024" version="1.1" xmlns="http://www.w3.org/2000/svg" p-id="5692" xmlns:xlink="http://www.w3.org/1999/xlink" width="200" height="200"><path d="M798.72 962.56H225.28c-90.112 0-163.84-73.728-163.84-163.84V81.92c0-12.288 8.192-20.48 20.48-20.48h737.28c12.288 0 20.48 8.192 20.48 20.48v675.84h102.4c12.288 0 20.48 8.192 20.48 20.48v20.48c0 90.112-73.728 163.84-163.84 163.84zM102.4 102.4v696.32c0 67.584 55.296 122.88 122.88 122.88h573.44c67.584 0 122.88-55.296 122.88-122.88h-102.4c-12.288 0-20.48-8.192-20.48-20.48V102.4H102.4z" fill="#1C2754" p-id="5693"></path><path d="M798.72 921.6H266.24c-90.112 0-163.84-73.728-163.84-163.84V102.4h696.32v819.2z" fill="#50BFFF" p-id="5694"></path><path d="M798.72 921.6H225.28v-122.88h696.32c0 67.584-55.296 122.88-122.88 122.88z" fill="#B1E2FF" p-id="5695"></path><path d="M225.28 675.84c67.584 0 122.88 55.296 122.88 122.88s-55.296 122.88-122.88 122.88-122.88-55.296-122.88-122.88 55.296-122.88 122.88-122.88z" fill="#50BFFF" p-id="5696"></path><path d="M184.32 245.76h266.24v225.28H184.32z" fill="#A5DEFF" p-id="5697"></path><path d="M450.56 245.76h266.24v225.28H450.56z" fill="#93D0FF" p-id="5698"></path><path d="M184.32 471.04h266.24v225.28H184.32z" fill="#FFFFFF" p-id="5699"></path><path d="M450.56 471.04h266.24v225.28H450.56z" fill="#D7E9FF" p-id="5700"></path></svg>